<?xml version="1.0" encoding="UTF-8"?>
<svg xmlns="http://www.w3.org/2000/svg" version="1.1" width="1016.000mm" height="711.000mm" viewBox="0 0 1016.000 711.000">
  <!-- 10_zigzag_n16 -->
  <path d="M 5.000 5.000 L 11.250 10.000 L 17.500 5.000 L 23.750 10.000 L 30.000 5.000 L 36.250 10.000 L 42.500 5.000 L 48.750 10.000 L 55.000 5.000 L 61.250 10.000 L 67.500 5.000 L 73.750 10.000 L 80.000 5.000 L 86.250 10.000 L 92.500 5.000 L 98.750 10.000 L 105.000 5.000 L 105.000 13.000 L 98.750 18.000 L 92.500 13.000 L 86.250 18.000 L 80.000 13.000 L 73.750 18.000 L 67.500 13.000 L 61.250 18.000 L 55.000 13.000 L 48.750 18.000 L 42.500 13.000 L 36.250 18.000 L 30.000 13.000 L 23.750 18.000 L 17.500 13.000 L 11.250 18.000 L 5.000 13.000 L 5.000 21.000 L 11.250 26.000 L 17.500 21.000 L 23.750 26.000 L 30.000 21.000 L 36.250 26.000 L 42.500 21.000 L 48.750 26.000 L 55.000 21.000 L 61.250 26.000 L 67.500 21.000 L 73.750 26.000 L 80.000 21.000 L 86.250 26.000 L 92.500 21.000 L 98.750 26.000 L 105.000 21.000 L 105.000 29.000 L 98.750 34.000 L 92.500 29.000 L 86.250 34.000 L 80.000 29.000 L 73.750 34.000 L 67.500 29.000 L 61.250 34.000 L 55.000 29.000 L 48.750 34.000 L 42.500 29.000 L 36.250 34.000 L 30.000 29.000 L 23.750 34.000 L 17.500 29.000 L 11.250 34.000 L 5.000 29.000 L 5.000 37.000 L 11.250 42.000 L 17.500 37.000 L 23.750 42.000 L 30.000 37.000 L 36.250 42.000 L 42.500 37.000 L 48.750 42.000 L 55.000 37.000 L 61.250 42.000 L 67.500 37.000 L 73.750 42.000 L 80.000 37.000 L 86.250 42.000 L 92.500 37.000 L 98.750 42.000 L 105.000 37.000 L 105.000 45.000 L 98.750 50.000 L 92.500 45.000 L 86.250 50.000 L 80.000 45.000 L 73.750 50.000 L 67.500 45.000 L 61.250 50.000 L 55.000 45.000 L 48.750 50.000 L 42.500 45.000 L 36.250 50.000 L 30.000 45.000 L 23.750 50.000 L 17.500 45.000 L 11.250 50.000 L 5.000 45.000 L 5.000 53.000 L 11.250 58.000 L 17.500 53.000 L 23.750 58.000 L 30.000 53.000 L 36.250 58.000 L 42.500 53.000 L 48.750 58.000 L 55.000 53.000 L 61.250 58.000 L 67.500 53.000 L 73.750 58.000 L 80.000 53.000 L 86.250 58.000 L 92.500 53.000 L 98.750 58.000 L 105.000 53.000 L 105.000 61.000 L 98.750 66.000 L 92.500 61.000 L 86.250 66.000 L 80.000 61.000 L 73.750 66.000 L 67.500 61.000 L 61.250 66.000 L 55.000 61.000 L 48.750 66.000 L 42.500 61.000 L 36.250 66.000 L 30.000 61.000 L 23.750 66.000 L 17.500 61.000 L 11.250 66.000 L 5.000 61.000" stroke="#0000FF" stroke-width="0.026" fill="none" stroke-linecap="round" stroke-linejoin="round"/>
</svg>
