<?xml version="1.0" encoding="UTF-8"?>
<svg xmlns="http://www.w3.org/2000/svg" version="1.1" width="295.000mm" height="20.200mm" viewBox="0 0 295.000 20.200">
  <!-- 17_dashes_2mm -->
  <line x1="10.000" y1="10.000" x2="12.000" y2="10.000" stroke="#0000FF" stroke-width="0.026" fill="none" stroke-linecap="round" stroke-linejoin="round"/>
  <line x1="17.000" y1="10.000" x2="19.000" y2="10.000" stroke="#0000FF" stroke-width="0.026" fill="none" stroke-linecap="round" stroke-linejoin="round"/>
  <line x1="24.000" y1="10.000" x2="26.000" y2="10.000" stroke="#0000FF" stroke-width="0.026" fill="none" stroke-linecap="round" stroke-linejoin="round"/>
  <line x1="31.000" y1="10.000" x2="33.000" y2="10.000" stroke="#0000FF" stroke-width="0.026" fill="none" stroke-linecap="round" stroke-linejoin="round"/>
  <line x1="38.000" y1="10.000" x2="40.000" y2="10.000" stroke="#0000FF" stroke-width="0.026" fill="none" stroke-linecap="round" stroke-linejoin="round"/>
  <line x1="45.000" y1="10.000" x2="47.000" y2="10.000" stroke="#0000FF" stroke-width="0.026" fill="none" stroke-linecap="round" stroke-linejoin="round"/>
  <line x1="52.000" y1="10.000" x2="54.000" y2="10.000" stroke="#0000FF" stroke-width="0.026" fill="none" stroke-linecap="round" stroke-linejoin="round"/>
  <line x1="59.000" y1="10.000" x2="61.000" y2="10.000" stroke="#0000FF" stroke-width="0.026" fill="none" stroke-linecap="round" stroke-linejoin="round"/>
  <line x1="66.000" y1="10.000" x2="68.000" y2="10.000" stroke="#0000FF" stroke-width="0.026" fill="none" stroke-linecap="round" stroke-linejoin="round"/>
  <line x1="73.000" y1="10.000" x2="75.000" y2="10.000" stroke="#0000FF" stroke-width="0.026" fill="none" stroke-linecap="round" stroke-linejoin="round"/>
  <line x1="80.000" y1="10.000" x2="82.000" y2="10.000" stroke="#0000FF" stroke-width="0.026" fill="none" stroke-linecap="round" stroke-linejoin="round"/>
  <line x1="87.000" y1="10.000" x2="89.000" y2="10.000" stroke="#0000FF" stroke-width="0.026" fill="none" stroke-linecap="round" stroke-linejoin="round"/>
  <line x1="94.000" y1="10.000" x2="96.000" y2="10.000" stroke="#0000FF" stroke-width="0.026" fill="none" stroke-linecap="round" stroke-linejoin="round"/>
  <line x1="101.000" y1="10.000" x2="103.000" y2="10.000" stroke="#0000FF" stroke-width="0.026" fill="none" stroke-linecap="round" stroke-linejoin="round"/>
  <line x1="108.000" y1="10.000" x2="110.000" y2="10.000" stroke="#0000FF" stroke-width="0.026" fill="none" stroke-linecap="round" stroke-linejoin="round"/>
  <line x1="115.000" y1="10.000" x2="117.000" y2="10.000" stroke="#0000FF" stroke-width="0.026" fill="none" stroke-linecap="round" stroke-linejoin="round"/>
  <line x1="122.000" y1="10.000" x2="124.000" y2="10.000" stroke="#0000FF" stroke-width="0.026" fill="none" stroke-linecap="round" stroke-linejoin="round"/>
  <line x1="129.000" y1="10.000" x2="131.000" y2="10.000" stroke="#0000FF" stroke-width="0.026" fill="none" stroke-linecap="round" stroke-linejoin="round"/>
  <line x1="136.000" y1="10.000" x2="138.000" y2="10.000" stroke="#0000FF" stroke-width="0.026" fill="none" stroke-linecap="round" stroke-linejoin="round"/>
  <line x1="143.000" y1="10.000" x2="145.000" y2="10.000" stroke="#0000FF" stroke-width="0.026" fill="none" stroke-linecap="round" stroke-linejoin="round"/>
  <line x1="150.000" y1="10.000" x2="152.000" y2="10.000" stroke="#0000FF" stroke-width="0.026" fill="none" stroke-linecap="round" stroke-linejoin="round"/>
  <line x1="157.000" y1="10.000" x2="159.000" y2="10.000" stroke="#0000FF" stroke-width="0.026" fill="none" stroke-linecap="round" stroke-linejoin="round"/>
  <line x1="164.000" y1="10.000" x2="166.000" y2="10.000" stroke="#0000FF" stroke-width="0.026" fill="none" stroke-linecap="round" stroke-linejoin="round"/>
  <line x1="171.000" y1="10.000" x2="173.000" y2="10.000" stroke="#0000FF" stroke-width="0.026" fill="none" stroke-linecap="round" stroke-linejoin="round"/>
  <line x1="178.000" y1="10.000" x2="180.000" y2="10.000" stroke="#0000FF" stroke-width="0.026" fill="none" stroke-linecap="round" stroke-linejoin="round"/>
  <line x1="185.000" y1="10.000" x2="187.000" y2="10.000" stroke="#0000FF" stroke-width="0.026" fill="none" stroke-linecap="round" stroke-linejoin="round"/>
  <line x1="192.000" y1="10.000" x2="194.000" y2="10.000" stroke="#0000FF" stroke-width="0.026" fill="none" stroke-linecap="round" stroke-linejoin="round"/>
  <line x1="199.000" y1="10.000" x2="201.000" y2="10.000" stroke="#0000FF" stroke-width="0.026" fill="none" stroke-linecap="round" stroke-linejoin="round"/>
  <line x1="206.000" y1="10.000" x2="208.000" y2="10.000" stroke="#0000FF" stroke-width="0.026" fill="none" stroke-linecap="round" stroke-linejoin="round"/>
  <line x1="213.000" y1="10.000" x2="215.000" y2="10.000" stroke="#0000FF" stroke-width="0.026" fill="none" stroke-linecap="round" stroke-linejoin="round"/>
  <line x1="220.000" y1="10.000" x2="222.000" y2="10.000" stroke="#0000FF" stroke-width="0.026" fill="none" stroke-linecap="round" stroke-linejoin="round"/>
  <line x1="227.000" y1="10.000" x2="229.000" y2="10.000" stroke="#0000FF" stroke-width="0.026" fill="none" stroke-linecap="round" stroke-linejoin="round"/>
  <line x1="234.000" y1="10.000" x2="236.000" y2="10.000" stroke="#0000FF" stroke-width="0.026" fill="none" stroke-linecap="round" stroke-linejoin="round"/>
  <line x1="241.000" y1="10.000" x2="243.000" y2="10.000" stroke="#0000FF" stroke-width="0.026" fill="none" stroke-linecap="round" stroke-linejoin="round"/>
  <line x1="248.000" y1="10.000" x2="250.000" y2="10.000" stroke="#0000FF" stroke-width="0.026" fill="none" stroke-linecap="round" stroke-linejoin="round"/>
  <line x1="255.000" y1="10.000" x2="257.000" y2="10.000" stroke="#0000FF" stroke-width="0.026" fill="none" stroke-linecap="round" stroke-linejoin="round"/>
  <line x1="262.000" y1="10.000" x2="264.000" y2="10.000" stroke="#0000FF" stroke-width="0.026" fill="none" stroke-linecap="round" stroke-linejoin="round"/>
  <line x1="269.000" y1="10.000" x2="271.000" y2="10.000" stroke="#0000FF" stroke-width="0.026" fill="none" stroke-linecap="round" stroke-linejoin="round"/>
  <line x1="276.000" y1="10.000" x2="278.000" y2="10.000" stroke="#0000FF" stroke-width="0.026" fill="none" stroke-linecap="round" stroke-linejoin="round"/>
  <line x1="283.000" y1="10.000" x2="285.000" y2="10.000" stroke="#0000FF" stroke-width="0.026" fill="none" stroke-linecap="round" stroke-linejoin="round"/>
</svg>
